Coordinates
version=1
nRows=60
nColumns=12
inDegrees=yes

Units are S.I. units (second, meters, Newtons, ...)
Angles are in degrees

endheader
time	SC_y	SC_z	SC_x	AC_y	AC_z	AC_x	GH_y	GH_z	GH_yy	EL_x	PS_y
       0.0              -26.53          23.51          9.843          54.12          9.676         -9.859          115.2          37.95          135.4          135.4          116.7
  0.008539              -26.53          23.51          9.843          54.12          9.676         -9.857          115.2          37.95          135.3          135.3          116.6
   0.01708              -26.53          23.52          9.842          54.11          9.676         -9.855          115.2          37.95          135.3          135.3          116.6
   0.02562              -26.53          23.52          9.842          54.11          9.676         -9.853          115.2          37.95          135.3          135.3          116.6
   0.03416              -26.53          23.52          9.841          54.11          9.675         -9.851          115.2          37.95          135.2          135.3          116.6
    0.0427              -26.53          23.52           9.84           54.1          9.675         -9.848          115.2          37.96          135.2          135.3          116.6
   0.05124              -26.53          23.52           9.84           54.1          9.675         -9.846          115.2          37.96          135.1          135.3          116.6
   0.05978              -26.53          23.53          9.839          54.09          9.675         -9.843          115.2          37.96          135.1          135.2          116.6
   0.06832              -26.54          23.53          9.838          54.09          9.674          -9.84          115.2          37.96          135.1          135.2          116.5
   0.07685              -26.54          23.53          9.837          54.08          9.674         -9.836          115.2          37.97          135.0          135.2          116.5
   0.08539              -26.54          23.53          9.836          54.08          9.673         -9.833          115.2          37.97          134.9          135.2          116.5
   0.09393              -26.54          23.54          9.835          54.07          9.673         -9.829          115.2          37.97          134.9          135.1          116.5
    0.1025              -26.54          23.54          9.834          54.06          9.673         -9.825          115.2          37.97          134.8          135.1          116.5
     0.111              -26.54          23.54          9.833          54.06          9.672          -9.82          115.2          37.98          134.7          135.1          116.4
    0.1196              -26.55          23.55          9.832          54.05          9.672         -9.816          115.2          37.98          134.7          135.0          116.4
    0.1281              -26.55          23.55           9.83          54.04          9.671          -9.81          115.2          37.99          134.6          135.0          116.4
    0.1366              -26.55          23.55          9.829          54.03           9.67         -9.805          115.2          37.99          134.5          135.0          116.3
    0.1452              -26.55          23.56          9.827          54.02           9.67         -9.799          115.2           38.0          134.4          134.9          116.3
    0.1537              -26.56          23.56          9.825          54.01          9.669         -9.792          115.2           38.0          134.3          134.9          116.3
    0.1622              -26.56          23.57          9.823           54.0          9.668         -9.785          115.2          38.01          134.1          134.8          116.2
    0.1708              -26.57          23.58          9.821          53.98          9.667         -9.777          115.2          38.01          134.0          134.8          116.2
    0.1793              -26.57          23.58          9.819          53.97          9.666         -9.768          115.2          38.02          133.9          134.7          116.1
    0.1879              -26.57          23.59          9.816          53.95          9.665         -9.758          115.2          38.03          133.7          134.6          116.1
    0.1964              -26.58           23.6          9.813          53.93          9.664         -9.747          115.2          38.04          133.5          134.6          116.0
    0.2049              -26.58          23.61           9.81          53.91          9.662         -9.735          115.2          38.05          133.3          134.5          115.9
    0.2135              -26.59          23.62          9.806          53.89          9.661         -9.721          115.2          38.06          133.1          134.4          115.8
     0.222               -26.6          23.63          9.802          53.86          9.659         -9.706          115.2          38.07          132.8          134.3          115.8
    0.2306              -26.61          23.64          9.798          53.83          9.657         -9.689          115.2          38.09          132.6          134.1          115.7
    0.2391              -26.62          23.66          9.793           53.8          9.655          -9.67          115.2           38.1          132.2          134.0          115.5
    0.2476              -26.63          23.67          9.787          53.77          9.653         -9.648          115.2          38.12          131.9          133.9          115.4
    0.2562              -26.64          23.69           9.78          53.72           9.65         -9.623          115.2          38.14          131.5          133.7          115.3
    0.2647              -26.65          23.71          9.772          53.68          9.646         -9.595          115.2          38.17          131.0          133.5          115.1
    0.2733              -26.67          23.74          9.764          53.62          9.643         -9.562          115.2          38.19          130.5          133.2          114.9
    0.2818              -26.68          23.77          9.753          53.56          9.638         -9.523          115.2          38.22          129.8          133.0          114.7
    0.2903              -26.71           23.8          9.741          53.48          9.633         -9.478          115.2          38.26          129.1          132.6          114.4
    0.2989              -26.73          23.84          9.727          53.39          9.627         -9.426          115.2          38.31          128.2          132.3          114.1
    0.3074              -26.76          23.89           9.71          53.29           9.62         -9.363          115.2          38.36          127.2          131.8          113.7
     0.316              -26.79          23.95           9.69          53.16          9.612         -9.287          115.2          38.42          125.9          131.3          113.3
    0.3245              -26.84          24.02          9.666          53.01          9.601         -9.196          115.2           38.5          124.4          130.6          112.7
     0.333              -26.89           24.1          9.636          52.82          9.589         -9.085          115.1          38.59          122.6          129.9          112.1
    0.3416              -26.95           24.2          9.599          52.59          9.573         -8.947          115.1           38.7          120.3          128.9          111.3
    0.3501              -27.03          24.33          9.553           52.3          9.554         -8.776          115.1          38.84          117.4          127.7          110.2
    0.3587              -27.14           24.5          9.495          51.93          9.529          -8.56          115.1          39.02          113.9          126.1          109.0
    0.3672              -27.26           24.7          9.422          51.47          9.498         -8.286          115.1          39.25          109.3          124.2          107.3
    0.3757              -27.43          24.97          9.328          50.88          9.458         -7.934          115.0          39.54          103.5          121.7          105.3
    0.3843              -27.64          25.31          9.207          50.12          9.407         -7.484          115.0          39.91          96.06          118.5          102.6
    0.3928              -27.91          25.75          9.053          49.15          9.342         -6.908          114.9          40.39          86.53          114.4          99.18
    0.4014              -28.25           26.3          8.859          47.94           9.26         -6.184          114.9          40.99          74.55          109.3          94.89
    0.4099              -28.66          26.96          8.622          46.45           9.16         -5.301          114.8          41.72          59.95          103.0          89.66
    0.4184              -29.14          27.74          8.348          44.73          9.044         -4.279          114.7          42.57          43.02          95.73          83.61
     0.427              -29.66          28.58          8.051          42.87          8.918         -3.171          114.6          43.49          24.69          87.87          77.05
    0.4355              -30.18          29.41          7.755           41.0          8.793         -2.064          114.5           44.4          6.367           80.0          70.49
    0.4441              -30.66          30.19          7.481          39.28          8.677         -1.041          114.4          45.25         -10.56          72.74          64.43
    0.4526              -31.08          30.86          7.244           37.8          8.577        -0.1588          114.3          45.98         -25.16          66.48          59.21
    0.4611              -31.42           31.4           7.05          36.58          8.495         0.5653          114.3          46.58         -37.14          61.33          54.92
    0.4697              -31.69          31.84          6.896          35.61           8.43          1.141          114.2          47.06         -46.67          57.25          51.51
    0.4782               -31.9          32.18          6.775          34.85          8.379          1.592          114.2          47.43         -54.13          54.04          48.84
    0.4867              -32.06          32.45          6.681          34.26          8.339          1.943          114.1          47.72         -59.95          51.55          46.76
    0.4953              -32.19          32.65          6.607           33.8          8.308          2.218          114.1          47.95         -64.49           49.6          45.13
    0.5038              -32.29          32.82           6.55          33.43          8.283          2.434          114.1          48.13         -68.06          48.07          43.86
